<svg xmlns="http://www.w3.org/2000/svg" xmlns:xlink="http://www.w3.org/1999/xlink" width="30" height="30" viewBox="0 0 30 30">
  <defs>
    <clipPath id="clip-path">
      <circle id="Ellipse_14" data-name="Ellipse 14" cx="15" cy="15" r="15" transform="translate(867 733)" fill="#fff" stroke="#707070" stroke-width="1"/>
    </clipPath>
  </defs>
  <g id="github" transform="translate(-867 -733)" clip-path="url(#clip-path)">
    <g id="github-icon" transform="translate(867.035 733.283)">
      <g id="Group_2" data-name="Group 2" transform="translate(0 0.11)">
        <path id="Path_199" data-name="Path 199" d="M27.923,7.819a14.9,14.9,0,0,0-5.446-5.447A14.637,14.637,0,0,0,14.965.366,14.639,14.639,0,0,0,7.453,2.373,14.9,14.9,0,0,0,2.007,7.819,14.638,14.638,0,0,0,0,15.331a14.544,14.544,0,0,0,2.855,8.8,14.657,14.657,0,0,0,7.375,5.407.872.872,0,0,0,.78-.136.762.762,0,0,0,.253-.584q0-.058-.01-1.052t-.01-1.734l-.449.075a5.718,5.718,0,0,1-1.081.068,8.24,8.24,0,0,1-1.354-.136,3.026,3.026,0,0,1-1.306-.584,2.469,2.469,0,0,1-.858-1.2L6,23.805a4.869,4.869,0,0,0-.614-.994,2.351,2.351,0,0,0-.847-.738l-.136-.1a1.431,1.431,0,0,1-.253-.234,1.069,1.069,0,0,1-.175-.273q-.058-.137.1-.224a1.264,1.264,0,0,1,.565-.087l.39.058a2.843,2.843,0,0,1,.965.468A3.143,3.143,0,0,1,6.936,22.7a3.435,3.435,0,0,0,1.081,1.218,2.294,2.294,0,0,0,1.277.419,5.541,5.541,0,0,0,1.11-.1,3.875,3.875,0,0,0,.877-.292,3.157,3.157,0,0,1,.955-2.008,13.342,13.342,0,0,1-2-.351,7.952,7.952,0,0,1-1.832-.76,5.246,5.246,0,0,1-1.571-1.3,6.274,6.274,0,0,1-1.023-2.046,9.727,9.727,0,0,1-.4-2.923,5.687,5.687,0,0,1,1.545-4.015,5.238,5.238,0,0,1,.134-3.975,2.73,2.73,0,0,1,1.676.263,11.716,11.716,0,0,1,1.627.748q.516.311.828.524a14.072,14.072,0,0,1,7.483,0l.741-.468a10.487,10.487,0,0,1,1.8-.858,2.554,2.554,0,0,1,1.579-.21,5.188,5.188,0,0,1,.156,3.975,5.687,5.687,0,0,1,1.54,4.014,9.838,9.838,0,0,1-.4,2.932,6.03,6.03,0,0,1-1.033,2.046,5.447,5.447,0,0,1-1.579,1.3,7.968,7.968,0,0,1-1.832.76,13.328,13.328,0,0,1-2,.351,3.47,3.47,0,0,1,1.013,2.769v4.111a.776.776,0,0,0,.244.584.846.846,0,0,0,.769.136,14.655,14.655,0,0,0,7.376-5.407,14.547,14.547,0,0,0,2.851-8.8,14.65,14.65,0,0,0-2.008-7.511Z" transform="translate(0 -0.366)" fill="#fff" stroke="#fffcfc" stroke-width="0.068"/>
      </g>
    </g>
  </g>
</svg>
