<svg xmlns="http://www.w3.org/2000/svg" xmlns:xlink="http://www.w3.org/1999/xlink" width="188" height="70" viewBox="0 0 188 70">
  <defs>
    <clipPath id="clip-path">
      <rect id="Rectangle_1" data-name="Rectangle 1" width="188" height="70" transform="translate(68 51)" fill="#fff" stroke="#707070" stroke-width="1"/>
    </clipPath>
    <clipPath id="clip-path-2">
      <rect id="Rectangle_3" data-name="Rectangle 3" width="28.339" height="19.751" transform="translate(-1.718)" fill="#fff" stroke="#707070" stroke-width="0.859"/>
    </clipPath>
  </defs>
  <g id="logo" transform="translate(-68 -51)" clip-path="url(#clip-path)">
    <g id="logo-2" data-name="logo" transform="translate(28.638 23.311)">
      <g id="logo-3" data-name="logo" transform="translate(40.362 30.915)">
        <g id="Path_7" data-name="Path 7">
          <path id="Path_8" data-name="Path 8" d="M0,0H177.8V63.548H0Z" fill="#f2f2f2"/>
          <path id="Path_9" data-name="Path 9" d="M0,0H4.018V.859H0ZM8.036,0h4.018V.859H8.036Zm8.036,0h4.018V.859H16.073Zm8.036,0h4.018V.859H24.109Zm8.036,0h4.018V.859H32.145Zm8.036,0H44.2V.859H40.182Zm8.036,0h4.018V.859H48.218Zm8.036,0h4.018V.859H56.254Zm8.036,0h4.018V.859H64.291Zm8.036,0h4.018V.859H72.327Zm8.036,0h4.018V.859H80.363ZM88.4,0h4.018V.859H88.4Zm8.036,0h4.018V.859H96.436Zm8.036,0h4.018V.859h-4.018Zm8.036,0h4.018V.859h-4.018Zm8.036,0h4.018V.859h-4.018Zm8.036,0H132.6V.859h-4.018Zm8.036,0h4.018V.859h-4.018Zm8.036,0h4.018V.859h-4.018Zm8.036,0h4.018V.859H152.69Zm8.036,0h4.018V.859h-4.018Zm8.036,0h4.018V.859h-4.018ZM176.8,0h1V.859h0V2.576h-1Zm0,6.011h1V9.446h-1Zm0,6.87h1v3.435h-1Zm0,6.87h1v3.435h-1Zm0,6.87h1v3.435h-1Zm0,6.87h1v3.435h-1Zm0,6.87h1V43.8h-1Zm0,6.87h1v3.435h-1Zm0,6.87h1v3.435h-1Zm0,6.87h1v2.576h-1v-.859h0Zm-8.036,1.718h4.018v.859h-4.018Zm-8.036,0h4.018v.859h-4.018Zm-8.036,0h4.018v.859H152.69Zm-8.036,0h4.018v.859h-4.018Zm-8.036,0h4.018v.859h-4.018Zm-8.036,0H132.6v.859h-4.018Zm-8.036,0h4.018v.859h-4.018Zm-8.036,0h4.018v.859h-4.018Zm-8.036,0h4.018v.859h-4.018Zm-8.036,0h4.018v.859H96.436Zm-8.036,0h4.018v.859H88.4Zm-8.036,0h4.018v.859H80.363Zm-8.036,0h4.018v.859H72.327Zm-8.036,0h4.018v.859H64.291Zm-8.036,0h4.018v.859H56.254Zm-8.036,0h4.018v.859H48.218Zm-8.036,0H44.2v.859H40.182Zm-8.036,0h4.018v.859H32.145Zm-8.036,0h4.018v.859H24.109Zm-8.036,0h4.018v.859H16.073Zm-8.036,0h4.018v.859H8.036ZM0,62.689H4.018v.859H0Zm0-6.011H1v3.435H0Zm0-6.87H1v3.435H0Zm0-6.87H1v3.435H0Zm0-6.87H1V39.5H0ZM0,29.2H1v3.435H0Zm0-6.87H1v3.435H0Zm0-6.87H1v3.435H0Zm0-6.87H1v3.435H0Zm0-6.87H1V5.153H0Z" fill="#f2f2f2" stroke="#280673" stroke-width="0.859"/>
        </g>
        <text id="LFBook_" data-name="LFBook " transform="translate(12.56 30.48)" fill="#56308c" font-size="29" font-family="SitkaSmall-Bold, Sitka Small" font-weight="700"><tspan x="0" y="0">LFBook</tspan></text>
        <text id="Your_book_finder" data-name="Your book finder" transform="translate(7.626 52.313)" fill="#280673" font-size="15" font-family="Sylfaen"><tspan x="0" y="0">Localizador de livros</tspan></text>
      </g>
      <g id="Mask_Group_1" data-name="Mask Group 1" transform="translate(183.446 69.518)" clip-path="url(#clip-path-2)">
        <g id="Book_SVG" transform="translate(0 2.692)">
          <path id="Path_1" data-name="Path 1" d="M5.5,13.4l5.116,8.473.446.515,3.9-1.689,4.762-1.924.933-.094,1.275.07L23,18.326l1.5-.739,8.8-1.043s.905-.1.371-.764l-1.713-1.361-.037-.563-8.287-5.84s-3.113.039-4.745.155a7.092,7.092,0,0,0-1.9.393,3.5,3.5,0,0,0-1.62,1.361s-2.219-1.177-3.839-.661a21.374,21.374,0,0,0-5.178,2.672,1.584,1.584,0,0,0-.494,1.356Z" transform="translate(-5.504 -8.019)" fill="#222323"/>
          <path id="Path_2" data-name="Path 2" d="M6.5,12.037s-.713.833-.483,1.185l5.163,8.221a4.963,4.963,0,0,0,.172-1.916Z" transform="translate(-5.504 -8.019)" fill="#fff"/>
          <path id="Path_3" data-name="Path 3" d="M11.562,19.678s-.416,2.095-.118,1.948c0,0,5.192-3.637,9.427-3.456,0,0,1.059-1.639.815-1.989,0,0-2.654-.6-6.916,1.713Z" transform="translate(-5.504 -8.019)" fill="#fff"/>
          <path id="Path_4" data-name="Path 4" d="M21.659,17.044s1.473-.713,1.6.47c0,0,1.349-1.608,8.788-1.643a16.416,16.416,0,0,1-.3-1.948s-7.557-.352-9.269,1.9" transform="translate(-5.504 -8.019)" fill="#fff"/>
          <path id="Path_5" data-name="Path 5" d="M15.5,10.027c1.7,1.455,4.787,5.074,6.527,6.083,0,0,.218-2.662,9.446-2.361,0,0-5.873-4.405-7.986-5.632a27.944,27.944,0,0,0-6.414.536S15.2,9.774,15.5,10.027Z" transform="translate(-5.504 -8.019)" fill="#fff"/>
          <path id="Path_6" data-name="Path 6" d="M11.556,19.531s5.749-4.059,9.918-3.512c0,0-5.37-5.36-6.648-6.168,0,0-2.286-1.718-6.32.986L6.686,11.893Z" transform="translate(-5.504 -8.019)" fill="#fff"/>
        </g>
      </g>
    </g>
  </g>
</svg>
