<svg xmlns="http://www.w3.org/2000/svg" xmlns:xlink="http://www.w3.org/1999/xlink" width="320" height="197" viewBox="0 0 320 197">
  <defs>
    <clipPath id="clip-path">
      <rect id="Rectangle_24" data-name="Rectangle 24" width="320" height="197" transform="translate(638 519)" fill="#fff" stroke="#707070" stroke-width="1"/>
    </clipPath>
  </defs>
  <g id="main-image2" transform="translate(-638 -519)" clip-path="url(#clip-path)">
    <g id="undraw_Reading_book_re_kqpk" transform="translate(690.988 519)">
      <path id="Path_175" data-name="Path 175" d="M189.758,239.025c-1.039,0-2.089-.016-3.119-.048l.023-.74c1.48.046,2.99.058,4.476.038l.01.741Q190.454,239.025,189.758,239.025Zm5.9-.172-.044-.739c1.482-.086,2.983-.208,4.461-.361l.078.736c-1.489.154-3,.277-4.5.364Zm-13.52-.115c-1.494-.113-3-.262-4.488-.442l.091-.735c1.473.178,2.971.326,4.454.438Zm22.488-.815-.112-.732c1.472-.221,2.956-.477,4.408-.763l.146.726c-1.464.288-2.958.546-4.442.769Zm-31.439-.271c-1.476-.247-2.966-.532-4.429-.846l.159-.724c1.451.312,2.93.594,4.395.839Zm40.283-1.468-.18-.719c1.445-.353,2.9-.744,4.319-1.161l.213.71c-1.432.42-2.9.814-4.352,1.169Zm-49.1-.425c-1.448-.381-2.905-.8-4.331-1.246l.226-.706c1.415.442,2.861.858,4.3,1.236Zm57.741-2.112-.246-.7c1.4-.482,2.813-1,4.193-1.55l.278.688c-1.39.55-2.812,1.075-4.225,1.561Zm-66.351-.58c-1.406-.511-2.821-1.063-4.205-1.639l.291-.683c1.373.572,2.778,1.12,4.173,1.627Zm74.715-2.729-.31-.674c1.347-.605,2.7-1.251,4.024-1.92l.341.66c-1.333.674-2.7,1.325-4.054,1.935Zm-83.043-.739c-1.352-.637-2.709-1.315-4.032-2.014l.353-.653c1.314.694,2.66,1.367,4,2Zm91.058-3.313-.371-.643c1.292-.729,2.581-1.5,3.832-2.277l.4.626c-1.26.788-2.559,1.561-3.861,2.295Zm-99.024-.9c-1.286-.756-2.573-1.554-3.827-2.37l.412-.619c1.244.81,2.521,1.6,3.8,2.352ZM246.1,221.524l-.429-.607c1.216-.84,2.43-1.72,3.607-2.615l.457.587C248.554,219.791,247.331,220.678,246.1,221.524ZM131.93,220.481c-1.209-.869-2.417-1.778-3.59-2.7l.467-.579c1.164.919,2.363,1.822,3.563,2.684Zm121.321-4.388-.483-.566c1.134-.946,2.262-1.932,3.353-2.93l.508.544c-1.1,1.006-2.237,2-3.379,2.953Zm-128.372-1.18c-1.126-.975-2.245-1.989-3.325-3.015l.519-.535c1.072,1.018,2.182,2.025,3.3,2.993Zm134.991-4.875-.533-.52c1.045-1.047,2.079-2.131,3.072-3.221l.557.5c-1,1.1-2.042,2.19-3.1,3.245Zm-141.5-1.3c-1.033-1.074-2.053-2.185-3.033-3.3l.566-.485c.972,1.107,1.984,2.209,3.01,3.275Zm147.536-5.326-.579-.47c.944-1.136,1.874-2.309,2.763-3.485l.6.443C267.8,201.085,266.859,202.267,265.908,203.411ZM112.462,202c-.928-1.159-1.841-2.356-2.715-3.558l.608-.433c.867,1.192,1.774,2.38,2.695,3.531Zm158.85-5.74-.62-.416c.835-1.217,1.654-2.468,2.432-3.722l.639.388c-.785,1.263-1.609,2.524-2.451,3.75ZM107.2,194.772c-.816-1.237-1.615-2.511-2.375-3.786l.645-.376c.754,1.265,1.547,2.529,2.357,3.757Zm168.838-6.116-.655-.358c.719-1.287,1.418-2.609,2.077-3.929l.672.328c-.664,1.33-1.369,2.661-2.094,3.958ZM102.628,187.1c-.7-1.306-1.376-2.646-2.013-3.982l.677-.316c.633,1.326,1.3,2.656,2,3.952Zm177.41-6.451-.686-.3c.6-1.348,1.17-2.729,1.7-4.1l.7.266c-.538,1.385-1.116,2.777-1.717,4.135Zm-181.25-1.6c-.574-1.363-1.124-2.757-1.634-4.145l.7-.253c.506,1.377,1.052,2.761,1.622,4.113ZM283.277,172.3l-.711-.233c.467-1.393.909-2.817,1.311-4.232l.721.2c-.406,1.426-.85,2.861-1.321,4.265ZM95.711,170.678c-.446-1.412-.865-2.854-1.245-4.287l.725-.188c.377,1.422.793,2.854,1.235,4.255Zm190.008-6.962-.73-.168c.335-1.428.642-2.886.912-4.333l.737.134c-.271,1.459-.58,2.928-.918,4.367Zm-192.3-1.665c-.312-1.447-.6-2.921-.84-4.382l.739-.122c.243,1.45.524,2.913.834,4.349Zm193.929-7.106-.742-.1c.2-1.451.372-2.93.506-4.4l.746.067c-.135,1.479-.307,2.969-.509,4.432Zm-195.4-1.691c-.177-1.466-.322-2.96-.431-4.439l.747-.054c.108,1.468.253,2.95.428,4.406Zm196.219-7.189-.748-.033c.067-1.468.1-2.957.1-4.425h.749c0,1.479-.034,2.98-.1,4.458Zm-196.878-1.7c-.026-.908-.039-1.835-.039-2.754q0-.855.015-1.707l.749.013q-.015.845-.015,1.694c0,.912.013,1.832.038,2.734Zm196.224-3.787c-.015-1.469-.065-2.957-.147-4.425l.748-.041c.083,1.479.133,2.979.149,4.458ZM92.191,135.49l-.748-.046c.093-1.48.223-2.975.383-4.444l.745.08c-.16,1.458-.288,2.941-.38,4.41Zm194.823-3.754c-.15-1.46-.336-2.938-.553-4.392l.741-.108c.219,1.465.406,2.954.557,4.426Zm-193.86-5.044-.74-.113c.23-1.466.5-2.943.793-4.391l.734.147c-.294,1.437-.559,2.9-.786,4.357Zm192.551-3.71c-.286-1.445-.608-2.9-.958-4.324l.728-.175c.353,1.435.678,2.9.966,4.356ZM94.929,118.018l-.727-.18c.364-1.435.767-2.882,1.2-4.3l.717.213C95.69,115.159,95.29,116.594,94.929,118.018Zm188.659-3.635c-.418-1.411-.874-2.829-1.357-4.218l.708-.241c.487,1.4.947,2.829,1.368,4.25ZM97.508,109.531l-.707-.246c.5-1.4,1.035-2.808,1.6-4.182l.695.278c-.558,1.364-1.092,2.761-1.586,4.15Zm183.172-3.517c-.547-1.363-1.132-2.732-1.74-4.067l.683-.3c.613,1.346,1.2,2.724,1.753,4.1ZM100.87,101.309l-.681-.309c.626-1.347,1.292-2.7,1.979-4.016l.666.34C102.152,98.63,101.491,99.971,100.87,101.309Zm176.143-3.347c-.67-1.308-1.381-2.618-2.111-3.895l.652-.365c.736,1.286,1.452,2.607,2.127,3.925Zm-172.031-4.53-.649-.37c.747-1.283,1.535-2.568,2.342-3.817l.631.4c-.8,1.24-1.583,2.515-2.325,3.789Zm167.63-3.162c-.792-1.246-1.62-2.488-2.464-3.69l.615-.422c.85,1.212,1.685,2.462,2.483,3.718ZM109.8,85.965l-.612-.427c.864-1.211,1.767-2.419,2.684-3.588l.592.454C111.557,83.565,110.66,84.763,109.8,85.965ZM267.517,83c-.9-1.169-1.843-2.332-2.795-3.455l.574-.476c.959,1.132,1.906,2.3,2.816,3.481ZM115.292,78.967l-.57-.48c.969-1.126,1.979-2.246,3-3.33l.548.505C117.256,76.738,116.254,77.85,115.292,78.967ZM261.77,76.223c-1.006-1.083-2.05-2.157-3.1-3.191l.528-.526c1.06,1.042,2.112,2.124,3.126,3.215ZM121.4,72.5l-.524-.53c1.071-1.036,2.18-2.061,3.294-3.045l.5.553c-1.106.977-2.206,1.993-3.27,3.022Zm134.024-2.511c-1.1-.989-2.241-1.965-3.384-2.9l.478-.571c1.151.942,2.3,1.925,3.41,2.922ZM128.073,66.6l-.473-.574c1.159-.933,2.356-1.853,3.559-2.735l.446.6C130.411,64.762,129.223,65.675,128.073,66.6Zm120.451-2.262c-1.19-.886-2.414-1.755-3.639-2.584l.423-.611c1.234.835,2.468,1.711,3.667,2.6Zm-113.266-3-.418-.615c1.24-.825,2.517-1.633,3.794-2.4l.389.633C137.755,59.715,136.489,60.517,135.258,61.335Zm105.872-2c-1.266-.775-2.566-1.53-3.864-2.245l.364-.647c1.308.721,2.618,1.482,3.894,2.262Zm-98.236-2.6-.36-.65c1.312-.71,2.657-1.4,4-2.047l.329.666c-1.331.644-2.666,1.327-3.968,2.032ZM233.3,55.025c-1.333-.657-2.7-1.291-4.058-1.886l.3-.678c1.371.6,2.747,1.238,4.09,1.9ZM150.918,52.86l-.3-.68c1.371-.588,2.773-1.151,4.168-1.675l.266.693c-1.384.52-2.776,1.079-4.137,1.662ZM225.1,51.44c-1.387-.532-2.807-1.039-4.22-1.508l.238-.7c1.424.473,2.854.984,4.252,1.52Zm-65.826-1.717-.233-.7c1.424-.462,2.876-.9,4.317-1.291l.2.714c-1.43.392-2.871.823-4.284,1.282Zm57.331-1.1c-1.429-.4-2.886-.778-4.331-1.115l.172-.721c1.457.339,2.925.717,4.365,1.123ZM167.9,47.356l-.167-.722c1.459-.33,2.946-.63,4.419-.893l.133.729c-1.462.261-2.937.559-4.385.886Zm40-.766c-1.459-.271-2.945-.512-4.416-.716l.1-.734c1.483.206,2.981.449,4.451.721ZM176.7,45.784l-.1-.734c1.483-.2,2.991-.36,4.482-.489l.065.738c-1.48.128-2.976.291-4.448.485Zm22.33-.425c-1.476-.137-2.977-.243-4.464-.315l.037-.74c1.5.072,3.011.179,4.5.317Zm-13.415-.344-.031-.74c1.377-.057,2.78-.086,4.171-.086h.339l0,.741h-.337c-1.381,0-2.773.029-4.14.085Z" transform="translate(-80.329 -44.189)" fill="#e6e6e6"/>
      <path id="Path_176" data-name="Path 176" d="M178.029,221.632V181.122a2.155,2.155,0,0,1,2.164-2.14h4.915a2.155,2.155,0,0,1,2.164,2.141v40.509a2.155,2.155,0,0,1-2.164,2.14h-4.915a2.155,2.155,0,0,1-2.164-2.14Z" transform="translate(-68.364 -27.302)" fill="#2f2e41"/>
      <path id="Path_177" data-name="Path 177" d="M169.485,221.632V181.122a2.155,2.155,0,0,1,2.164-2.14h4.915a2.155,2.155,0,0,1,2.164,2.141v40.509a2.155,2.155,0,0,1-2.164,2.14H171.65a2.155,2.155,0,0,1-2.164-2.14Z" transform="translate(-69.542 -27.302)" fill="#2f2e41"/>
      <rect id="Rectangle_25" data-name="Rectangle 25" width="23.895" height="26.182" rx="1.756" transform="translate(97.478 140.447)" fill="#2f2e41"/>
      <path id="Path_178" data-name="Path 178" d="M152.856,112.848s-10.043,4.614-18.541,7.673c-5.274-11.773-12.871-11.332-12.871-11.332l-4.606,3.136.831,4.7-.227,7.691-1.208,4.032,1.734.31.979.176.148-.132a9.846,9.846,0,0,0-.293,2.932l43.569-6.721S160.86,118.374,152.856,112.848Z" transform="translate(-76.884 -36.046)" fill="#e6e6e6"/>
      <path id="Path_194" data-name="Path 194" d="M1.984-.011l4.88-.026a1.962,1.962,0,0,1,1.973,1.98l-.217,40.8a2.013,2.013,0,0,1-1.994,2l-4.88.026a1.962,1.962,0,0,1-1.973-1.98l.217-40.8A2.013,2.013,0,0,1,1.984-.011Z" transform="matrix(-0.594, -0.804, 0.804, -0.594, 67.215, 142.854)" fill="#6c63ff"/>
      <path id="Path_195" data-name="Path 195" d="M1.993.009,6.9.032a2.009,2.009,0,0,1,2,1.99L9.086,42.63A1.965,1.965,0,0,1,7.1,44.6l-4.9-.023a2.009,2.009,0,0,1-2-1.99L.009,1.981A1.965,1.965,0,0,1,1.993.009Z" transform="translate(113.131 112.807) rotate(-27.954)" fill="#6c63ff"/>
      <path id="Path_179" data-name="Path 179" d="M199.324,157.51l-7.09,4.648a2.132,2.132,0,0,1-2.9-.716l-7.83-14.592a2.085,2.085,0,0,1,1.025-2.775l4.826-2.533a2.132,2.132,0,0,1,2.9.716l10.095,12.476A2.085,2.085,0,0,1,199.324,157.51Z" transform="translate(-67.914 -32.027)" fill="#ccc"/>
      <path id="Path_180" data-name="Path 180" d="M154.742,153.252l4.608,6.052a2.014,2.014,0,0,0,2.824.088l12.18-11.305a1.96,1.96,0,0,0,.089-2.793l-3.363-3.544a2.014,2.014,0,0,0-2.824-.088l-13.425,8.8A1.96,1.96,0,0,0,154.742,153.252Z" transform="translate(-71.649 -32.044)" fill="#ccc"/>
      <rect id="Rectangle_28" data-name="Rectangle 28" width="26.327" height="50.87" rx="1.756" transform="translate(96.262 109.02)" fill="#ccc"/>
      <ellipse id="Ellipse_12" data-name="Ellipse 12" cx="17.821" cy="17.624" rx="17.821" ry="17.624" transform="translate(91.474 70.709)" fill="#6c63ff"/>
      <path id="Path_181" data-name="Path 181" d="M180.087,129.165a6.184,6.184,0,0,1-3.526-.831,2.669,2.669,0,0,1-1.066-2,1.792,1.792,0,0,1,.619-1.479,2.371,2.371,0,0,1,2.224-.316l-.9-6.5.66-.089,1.056,7.637-.551-.25a2.035,2.035,0,0,0-2.06.018,1.15,1.15,0,0,0-.384.953,2.017,2.017,0,0,0,.793,1.491,5.557,5.557,0,0,0,3.152.7Z" transform="translate(-68.714 -34.947)" fill="#2f2e41"/>
      <rect id="Rectangle_29" data-name="Rectangle 29" width="3.587" height="0.659" transform="translate(101.875 83.656)" fill="#2f2e41"/>
      <rect id="Rectangle_30" data-name="Rectangle 30" width="3.587" height="0.659" transform="translate(113.197 83.656)" fill="#2f2e41"/>
      <path id="Path_182" data-name="Path 182" d="M168.133,112.462a6.5,6.5,0,0,1-5.371-5.84,9.466,9.466,0,0,1,4.322-8.3,18.6,18.6,0,0,1,9.633-2.927,26.67,26.67,0,0,1,18.1,5.9c2.521,2.071,4.876,4.709,5.768,7.895a7.591,7.591,0,0,1-2.106,7.84,5.36,5.36,0,0,1-4.082,1.243,10.2,10.2,0,0,1-4.752-2.09c-2.713-1.951-4.94-4.668-8.245-5.687-2.423-.747-5.568-.09-7.049,2.078a3.918,3.918,0,0,0-.637,1.653.511.511,0,0,0,.349.608.5.5,0,0,0,.614-.345c.389-2.73,3.783-3.748,6.165-3.125,3.473.909,5.8,3.973,8.653,5.92a10.582,10.582,0,0,0,5.039,1.989,6.305,6.305,0,0,0,4.4-1.336,8.4,8.4,0,0,0,2.827-8.113c-.623-3.408-2.943-6.33-5.488-8.591A27.635,27.635,0,0,0,177.5,94.383a20.706,20.706,0,0,0-10.228,2.639,11.041,11.041,0,0,0-5.514,8.243,7.765,7.765,0,0,0,4.242,7.59,6.7,6.7,0,0,0,2.129.594c.638.072.632-.917,0-.988Z" transform="translate(-70.611 -37.901)" fill="#2f2e41"/>
      <path id="Path_183" data-name="Path 183" d="M119.006,128.642l2.114-.672c.227-.429-.188-.154.01-.571,5.349-11.285.405-18.209.405-18.209l-3.824,2.6c-.009-.021-.017-.044-.027-.065,0,0-.68-1.493-1.737-.373a26.235,26.235,0,0,1-.378,17.922l4.3,1.942,1.661-1.942.038-.187-2.973-.267Z" transform="translate(-76.976 -36.046)" fill="#ccc"/>
      <path id="Path_184" data-name="Path 184" d="M179.305,169.289c-16.99-3.734-32.809,4-32.809,4l-.043-.038-6.3-5.562-24.616-39.726,6,.037c16.688-9.857,40.171-8.513,40.171-8.513C171.83,130.832,179.305,169.289,179.305,169.289Z" transform="translate(-76.981 -34.764)" fill="#3f3d56"/>
      <path id="Path_185" data-name="Path 185" d="M146.453,172.3l-6.3-5.563-24.616-39.726,6,.037S145.466,158.294,146.453,172.3Z" transform="translate(-76.981 -33.813)" opacity="0.1"/>
      <path id="Path_196" data-name="Path 196" d="M9.732.03c5.375.017,9.74,2.774,9.751,6.159s-4.338,6.116-9.712,6.1S.03,9.514.019,6.129,4.357.014,9.732.03Z" transform="translate(59.294 98.602) rotate(-17.052)" fill="#6c63ff"/>
      <path id="Path_186" data-name="Path 186" d="M99.831,110.995c-1.357,4.959-6,8.03-6,8.03s-2.447-4.969-1.091-9.928,6-8.03,6-8.03S101.188,106.036,99.831,110.995Z" transform="translate(-80.181 -37.063)" fill="#ccc"/>
      <path id="Path_187" data-name="Path 187" d="M88.126,110.995c1.357,4.959,6,8.03,6,8.03s2.447-4.969,1.091-9.928-6-8.03-6-8.03S86.77,106.036,88.126,110.995Z" transform="translate(-80.817 -37.063)" fill="#ccc"/>
      <path id="Path_188" data-name="Path 188" d="M90.956,109.375c3.722,3.583,4.177,9.092,4.177,9.092s-5.581-.3-9.3-3.885-4.177-9.092-4.177-9.092S87.233,105.791,90.956,109.375Z" transform="translate(-81.653 -36.509)" fill="#3f3d56"/>
      <path id="Path_189" data-name="Path 189" d="M97.676,109.375c-3.722,3.583-4.177,9.092-4.177,9.092s5.581-.3,9.3-3.885,4.177-9.092,4.177-9.092S101.4,105.791,97.676,109.375Z" transform="translate(-80.019 -36.509)" fill="#3f3d56"/>
      <path id="Path_190" data-name="Path 190" d="M264,160.744c-1.357,4.959-6,8.03-6,8.03s-2.447-4.969-1.091-9.928,6-8.03,6-8.03S265.36,155.785,264,160.744Z" transform="translate(-57.544 -30.83)" fill="#ccc"/>
      <path id="Path_191" data-name="Path 191" d="M252.3,160.744c1.357,4.959,6,8.03,6,8.03s2.447-4.969,1.091-9.928-6-8.03-6-8.03S250.942,155.785,252.3,160.744Z" transform="translate(-58.18 -30.83)" fill="#ccc"/>
      <path id="Path_192" data-name="Path 192" d="M255.128,159.124c3.722,3.583,4.177,9.092,4.177,9.092s-5.581-.3-9.3-3.885-4.177-9.092-4.177-9.092S251.405,155.54,255.128,159.124Z" transform="translate(-59.016 -30.276)" fill="#3f3d56"/>
      <path id="Path_193" data-name="Path 193" d="M261.848,159.124c-3.722,3.583-4.177,9.092-4.177,9.092s5.581-.3,9.3-3.885,4.177-9.092,4.177-9.092S265.571,155.54,261.848,159.124Z" transform="translate(-57.383 -30.276)" fill="#3f3d56"/>
      <rect id="Rectangle_31" data-name="Rectangle 31" width="77.254" height="0.659" transform="translate(71.248 196.266)" fill="#3f3d56"/>
    </g>
  </g>
</svg>
