<svg xmlns="http://www.w3.org/2000/svg" xmlns:xlink="http://www.w3.org/1999/xlink" width="325" height="257" viewBox="0 0 325 257">
  <defs>
    <clipPath id="clip-path">
      <rect id="Rectangle_2" data-name="Rectangle 2" width="325" height="257" transform="translate(574 192)" fill="#fff" stroke="#707070" stroke-width="1"/>
    </clipPath>
    <linearGradient id="linear-gradient" x1="0.5" y1="1" x2="0.5" gradientUnits="objectBoundingBox">
      <stop offset="0" stop-color="gray" stop-opacity="0.251"/>
      <stop offset="0.54" stop-color="gray" stop-opacity="0.122"/>
      <stop offset="1" stop-color="gray" stop-opacity="0.102"/>
    </linearGradient>
  </defs>
  <g id="main-image1" transform="translate(-574 -192)" clip-path="url(#clip-path)">
    <g id="undraw_book_lover_mkck" transform="translate(574 192.31)">
      <path id="Path_10" data-name="Path 10" d="M218.746,57.187c-20.564-.709-40.153-7.3-58.855-14.5s-37.227-15.194-57.3-19.012c-12.91-2.456-27.675-2.8-38.075,4.064C54.505,34.357,51.271,45.755,49.533,56.342c-1.309,7.964-2.078,16.345,1.509,23.8C53.53,85.32,57.95,89.671,61,94.647c10.635,17.253,3.12,38.528-8.4,55.374-5.4,7.9-11.677,15.449-15.846,23.855s-6.1,18.05-2.453,26.632c3.619,8.513,12.239,14.894,21.575,19.387,18.966,9.128,41.306,11.738,63.107,13.217,48.243,3.276,96.74,1.857,145.11.438,17.9-.527,35.879-1.059,53.489-3.806,9.78-1.526,19.875-3.944,26.976-9.79,9.011-7.419,11.245-19.983,5.208-29.284-10.133-15.6-38.129-19.479-45.221-36.227-3.9-9.216.108-19.482,5.77-28.032,12.15-18.337,32.515-34.426,33.589-55.387.737-14.4-9.056-28.814-24.193-35.628-15.865-7.167-37.872-6.258-49.571,5.562C258.083,53.139,236.9,57.811,218.746,57.187Z" transform="translate(-28.146 -13.863)" fill="#6c63ff" opacity="0.1"/>
      <path id="Path_11" data-name="Path 11" d="M138.361,218.683,29.6,218.157,18.8,193.006l38.212-2.752-6.66-27.575,75.578-9.72L53.555,127.994l6.393-1.507,116.373,18.838-6.409,43.034-9.161,23.65Z" transform="translate(0 -0.979)" fill="#6c63ff"/>
      <path id="Path_12" data-name="Path 12" d="M59.418,222.05s6.673-1.059,10.676,3.62c0,0-2.936,2.3-9.253-.883Z" transform="translate(-28.146 -15.406)" fill="#6c63ff"/>
      <path id="Path_13" data-name="Path 13" d="M58.719,221.946s-4.258,5.2-2.161,10.988c0,0,3.47-1.378,3.848-8.4Z" transform="translate(-28.146 -15.406)" fill="#6c63ff"/>
      <path id="Path_14" data-name="Path 14" d="M54.893,213.319s2.669-4.859,13.345,1.942c0,0-1.423,3.266-6.139,3S56.139,215.879,54.893,213.319Z" transform="translate(-28.146 -15.326)" fill="#6c63ff"/>
      <path id="Path_15" data-name="Path 15" d="M54.2,212.979s-5.538-.631-6.075,11.949c0,0,3.511.722,6.005-3.257S55.6,215.461,54.2,212.979Z" transform="translate(-28.146 -15.337)" fill="#6c63ff"/>
      <path id="Path_16" data-name="Path 16" d="M50.979,202.829s3.114-8.563,14.413-2.472c0,0-2.58,7.857-13.256,5.385Z" transform="translate(-28.146 -15.222)" fill="#6c63ff"/>
      <path id="Path_17" data-name="Path 17" d="M47.509,189.934s5.872-8.652,16.281-.631c0,0-3.648,8.122-15.391,3.708Z" transform="translate(-28.146 -15.128)" fill="#6c63ff"/>
      <path id="Path_18" data-name="Path 18" d="M46.263,177.66s6.851-7.948,17.158,0c0,0-6.495,6.974-17.158,2.03Z" transform="translate(-28.146 -15.037)" fill="#6c63ff"/>
      <path id="Path_19" data-name="Path 19" d="M45.2,165.733s6.939-8.3,16.815-.441c0,0-7.829,7.327-16.815,2.384Z" transform="translate(-28.146 -14.942)" fill="#6c63ff"/>
      <path id="Path_20" data-name="Path 20" d="M45.818,155.129s7.308-10.682,16.548-3.443c0,0-7.829,9.181-16.548,5.473Z" transform="translate(-28.146 -14.844)" fill="#6c63ff"/>
      <path id="Path_21" data-name="Path 21" d="M47.509,142.766s7.74-10.594,16.726-2.472c0,0-9.164,9.181-16.726,4.414Z" transform="translate(-28.146 -14.752)" fill="#6c63ff"/>
      <path id="Path_22" data-name="Path 22" d="M50.089,131.7s9.164-9.957,17.158-5.99c0,0-9.548,10.575-17.558,8.633Z" transform="translate(-28.146 -14.656)" fill="#6c63ff"/>
      <path id="Path_23" data-name="Path 23" d="M53.292,121.206s10.574-12.2,16.726-8.122c0,0-7.791,9.459-17.476,10.4Z" transform="translate(-28.146 -14.559)" fill="#6c63ff"/>
      <path id="Path_24" data-name="Path 24" d="M57.915,109.061s9.256-9.957,16.017-7.485c0,0-7.918,10.329-17.26,10.594Z" transform="translate(-28.146 -14.474)" fill="#6c63ff"/>
      <path id="Path_25" data-name="Path 25" d="M62.1,97.691s10.231-9.534,14.68-7.857c0,0-7.384,10.594-15.125,9.976Z" transform="translate(-28.146 -14.384)" fill="#6c63ff"/>
      <path id="Path_26" data-name="Path 26" d="M66.192,87.173S75,75.782,79.807,76.664c0,0-5.341,10.155-13.615,11.666Z" transform="translate(-28.146 -14.284)" fill="#6c63ff"/>
      <path id="Path_27" data-name="Path 27" d="M70.634,73.032s7.785-8.73,11.992-8.711c0,0-6.145,11.666-12.313,11.558Z" transform="translate(-28.146 -14.189)" fill="#6c63ff"/>
      <path id="Path_28" data-name="Path 28" d="M73.265,63.534l7.521-18.186s.375,16.439-8.477,21.559Z" transform="translate(-28.146 -14.042)" fill="#6c63ff"/>
      <path id="Path_29" data-name="Path 29" d="M76.318,43.336s1.246-15.187.445-16.423c0,0,5.376,12.627-.5,23.133Z" transform="translate(-28.146 -13.9)" fill="#6c63ff"/>
      <path id="Path_30" data-name="Path 30" d="M50.686,202.655s-7.8-4.8-12.846,6.936c0,0,6.939,4.572,13.765-3.944Z" transform="translate(-28.146 -15.25)" fill="#6c63ff"/>
      <path id="Path_31" data-name="Path 31" d="M47.258,189.467s-9.564-4.329-14.2,7.92c0,0,7.388,5.045,15.074-4.824Z" transform="translate(-28.146 -15.15)" fill="#6c63ff"/>
      <path id="Path_32" data-name="Path 32" d="M45.818,178.394s-6.851-7.948-17.158,0c0,0,6.495,6.974,17.158,2.03Z" transform="translate(-28.146 -15.042)" fill="#6c63ff"/>
      <path id="Path_33" data-name="Path 33" d="M44.961,165.733s-6.939-8.3-16.815-.441c0,0,7.829,7.327,16.815,2.384Z" transform="translate(-28.146 -14.942)" fill="#6c63ff"/>
      <path id="Path_34" data-name="Path 34" d="M45.818,155.418s-4.868-11.965-15.449-6.82c0,0,5.719,10.609,15.016,8.806Z" transform="translate(-28.146 -14.83)" fill="#6c63ff"/>
      <path id="Path_35" data-name="Path 35" d="M48.122,142.686s-4.839-12.173-15.569-6.53c0,0,6.571,11.158,15.093,8.409Z" transform="translate(-28.146 -14.732)" fill="#6c63ff"/>
      <path id="Path_36" data-name="Path 36" d="M51.122,131.7s-1.906-13.346-10.8-14.541c0,0,1.887,14.074,9.605,16.947Z" transform="translate(-28.146 -14.597)" fill="#6c63ff"/>
      <path id="Path_37" data-name="Path 37" d="M53.517,121.172s-.744-16.08-8.1-16.641c0,0,.248,12.2,7.27,18.917Z" transform="translate(-28.146 -14.499)" fill="#6c63ff"/>
      <path id="Path_38" data-name="Path 38" d="M58.677,108.551s-2.192-13.371-9.215-15c0,0,.871,12.949,8.519,18.287Z" transform="translate(-28.146 -14.415)" fill="#6c63ff"/>
      <path id="Path_39" data-name="Path 39" d="M62.932,97.74s-.073-13.929-4.363-15.976c0,0-2.66,12.612,3.12,17.754Z" transform="translate(-28.146 -14.324)" fill="#6c63ff"/>
      <path id="Path_40" data-name="Path 40" d="M66.519,86.969s-.6-14.342-5.043-16.363c0,0-1.519,11.35,4.378,17.3Z" transform="translate(-28.146 -14.237)" fill="#6c63ff"/>
      <path id="Path_41" data-name="Path 41" d="M71.254,74.141s-.025-11.666-3.2-14.4c0,0-3.152,12.779,1.541,16.748Z" transform="translate(-28.146 -14.154)" fill="#6c63ff"/>
      <path id="Path_42" data-name="Path 42" d="M72.893,62.946,69.808,43.531S65.617,59.44,73.039,66.452Z" transform="translate(-28.146 -14.028)" fill="#6c63ff"/>
      <path id="Path_43" data-name="Path 43" d="M73.494,43.535s-7.918-13.053-7.756-14.5c0,0,.842,13.68,10.8,20.494Z" transform="translate(-28.146 -13.916)" fill="#6c63ff"/>
      <path id="Path_44" data-name="Path 44" d="M74.422,39.606s-7.473-18.539-10.854-20.04c0,0,10.676,5.385,11.477,19.51Z" transform="translate(-28.146 -13.843)" fill="#6c63ff"/>
      <path id="Path_45" data-name="Path 45" d="M70.275,75.79l-.512-.154c6.307-20.409,7.88-33.421,4.433-36.684l.365-.385C78.219,42.01,76.735,54.881,70.275,75.79Z" transform="translate(-28.146 -13.99)" fill="#444053"/>
      <path id="Path_46" data-name="Path 46" d="M52.907,123.854l-.756-.268c.67-1.87,1.392-3.768,2.148-5.637,6.584-16.281,12.189-31.428,15.782-43.056l.658-.315c-3.6,11.65-9.106,27.376-15.7,43.68C54.289,120.092,53.571,121.981,52.907,123.854Z" transform="translate(-28.146 -14.268)" fill="#444053"/>
      <path id="Path_47" data-name="Path 47" d="M68.82,236.554c-.1-.11-10.323-11.533-17.45-31.034a114.04,114.04,0,0,1-6.885-35.558c-.489-15.175,2.72-32.118,8.217-47.511l.6.694c-12.341,34.546-7.438,64.149-.934,81.975,7.051,19.324,17.158,30.621,17.257,30.734Z" transform="translate(-28.146 -14.638)" fill="#444053"/>
      <path id="Path_48" data-name="Path 48" d="M228.555,213s-7.2,8.724-1.484,21.913l-57.511,24.75-5.519,1.148L161.5,249.777l1.7-13.926V228.24Z" transform="translate(-28.146 -15.337)" fill="#d5d6db"/>
      <path id="Path_49" data-name="Path 49" d="M18.8,193.412l79.6-14.4,105.474,16.672-65.512,23.4Z" transform="translate(0 -1.385)" fill="#6c63ff"/>
      <path id="Path_50" data-name="Path 50" d="M18.8,193.412l79.6-14.4,105.474,16.672-65.512,23.4Z" transform="translate(0 -1.385)" fill="#6c63ff"/>
      <path id="Path_51" data-name="Path 51" d="M46.943,207.317s-7.445,14,1.134,26.923L166.119,259.62s-7.327-11.149.378-26.623Z" transform="translate(-28.146 -15.293)" fill="#6c63ff"/>
      <path id="Path_52" data-name="Path 52" d="M46.943,207.317s-7.445,14,1.134,26.923L166.119,259.62s-7.327-11.149.378-26.623Z" transform="translate(-28.146 -15.293)" opacity="0.1"/>
      <path id="Path_53" data-name="Path 53" d="M50.461,212.207s-4.255,10.241,0,16.868" transform="translate(-28.146 -15.331)" opacity="0.1"/>
      <path id="Path_54" data-name="Path 54" d="M166.119,259.81l65.9-27.9s3.686.788,1.3,3.468S167.39,262.49,167.39,262.49L48.078,234.43Z" transform="translate(-28.146 -15.483)" fill="#6c63ff"/>
      <path id="Path_55" data-name="Path 55" d="M166.119,259.81l65.9-27.9s3.686.788,1.3,3.468S167.39,262.49,167.39,262.49L48.078,234.43Z" transform="translate(-28.146 -15.483)" opacity="0.1"/>
      <path id="Path_56" data-name="Path 56" d="M160.717,236.038s-6.355,7.567,0,18.917" transform="translate(-28.146 -15.515)" opacity="0.1"/>
      <path id="Path_156" data-name="Path 156" d="M0,0,30.026.07V.385L0,.316Z" transform="translate(134.834 229.831) rotate(-18.45)" opacity="0.1"/>
      <path id="Path_157" data-name="Path 157" d="M0,0,36.578.094V.41L0,.316Z" transform="translate(134.823 232.369) rotate(-20.82)" opacity="0.1"/>
      <path id="Path_158" data-name="Path 158" d="M0,0,42.39.115V.431L0,.316Z" transform="translate(135.014 235.361) rotate(-22.26)" opacity="0.1"/>
      <path id="Path_159" data-name="Path 159" d="M0,0,48.786.142V.457L0,.316Z" transform="matrix(0.911, -0.412, 0.412, 0.911, 135.473, 238)" opacity="0.1"/>
      <path id="Path_160" data-name="Path 160" d="M0,0,53.362.151V.467L0,.316Z" transform="matrix(0.916, -0.401, 0.401, 0.916, 135.826, 239.284)" opacity="0.1"/>
      <path id="Path_161" data-name="Path 161" d="M0,0,63.858.18V.5L0,.316Z" transform="translate(136.565 241.44) rotate(-23.36)" opacity="0.1"/>
      <path id="Path_57" data-name="Path 57" d="M48.37,194.984l55.923-11.666,34.068,6.463L92.536,204.442Z" transform="translate(0 -1.418)" fill="#fff" opacity="0.3"/>
      <path id="Path_58" data-name="Path 58" d="M232.018,209.611s2.891,1.157,1.195,2.945S166.5,233.015,166.5,233.015Z" transform="translate(-28.146 -15.311)" fill="#6c63ff"/>
      <path id="Path_59" data-name="Path 59" d="M260.1,182.441s-7.2,8.721-1.481,21.913L201.112,229.1l-5.519,1.154-2.542-11.035,1.725-13.923v-7.621Z" transform="translate(-28.146 -15.101)" fill="#d5d6db"/>
      <path id="Path_60" data-name="Path 60" d="M50.349,162.848l79.6-14.4,105.478,16.672-65.512,23.4Z" transform="translate(0 -1.149)" fill="#3a3768"/>
      <path id="Path_61" data-name="Path 61" d="M78.482,176.757s-7.448,14,1.131,26.923L197.655,229.06s-7.324-11.158.391-26.626Z" transform="translate(-28.146 -15.057)" fill="#3a3768"/>
      <path id="Path_62" data-name="Path 62" d="M78.482,176.757s-7.448,14,1.131,26.923L197.655,229.06s-7.324-11.158.391-26.626l-37.328-8.018Z" transform="translate(-28.146 -15.057)" opacity="0.1"/>
      <path id="Path_63" data-name="Path 63" d="M82.009,181.647s-4.251,10.237,0,16.868" transform="translate(-28.146 -15.095)" opacity="0.1"/>
      <path id="Path_64" data-name="Path 64" d="M197.667,229.25l65.9-27.9s3.683.788,1.3,3.468-65.932,27.115-65.932,27.115L79.626,203.869Z" transform="translate(-28.146 -15.247)" fill="#3a3768"/>
      <path id="Path_65" data-name="Path 65" d="M197.667,229.25l65.9-27.9s3.683.788,1.3,3.468-65.932,27.115-65.932,27.115L79.626,203.869Z" transform="translate(-28.146 -15.247)" opacity="0.1"/>
      <path id="Path_66" data-name="Path 66" d="M192.266,205.477s-6.355,7.567,0,18.917" transform="translate(-28.146 -15.279)" opacity="0.1"/>
      <path id="Path_162" data-name="Path 162" d="M0,0,30.026.07V.385L0,.316Z" transform="translate(166.385 199.51) rotate(-18.45)" opacity="0.1"/>
      <path id="Path_163" data-name="Path 163" d="M0,0,36.578.094V.41L0,.316Z" transform="translate(166.378 202.047) rotate(-20.82)" opacity="0.1"/>
      <path id="Path_164" data-name="Path 164" d="M0,0,42.39.115V.431L0,.316Z" transform="translate(166.565 205.035) rotate(-22.26)" opacity="0.1"/>
      <path id="Path_165" data-name="Path 165" d="M0,0,48.786.142V.457L0,.316Z" transform="matrix(0.911, -0.412, 0.412, 0.911, 167.027, 207.674)" opacity="0.1"/>
      <path id="Path_166" data-name="Path 166" d="M0,0,53.362.151V.467L0,.316Z" transform="matrix(0.916, -0.401, 0.401, 0.916, 167.375, 208.953)" opacity="0.1"/>
      <path id="Path_167" data-name="Path 167" d="M0,0,63.858.18V.5L0,.316Z" transform="translate(168.117 211.11) rotate(-23.36)" opacity="0.1"/>
      <path id="Path_67" data-name="Path 67" d="M79.922,164.423l55.923-11.666,34.068,6.463-45.825,14.661Z" transform="translate(0 -1.182)" fill="#fff" opacity="0.45"/>
      <path id="Path_68" data-name="Path 68" d="M263.57,179.051s2.888,1.157,1.195,2.942-66.707,20.459-66.707,20.459Z" transform="translate(-28.146 -15.075)" fill="#3a3768"/>
      <path id="Path_69" data-name="Path 69" d="M263.09,147.48s-7.2,15.66-1.484,28.849L204.1,194.143l-5.506,1.157-2.542-11.035,1.7-13.926v-7.621Z" transform="translate(-28.146 -14.831)" fill="#d5d6db"/>
      <path id="Path_70" data-name="Path 70" d="M53.346,127.89l79.6-14.4,105.478,16.672-65.515,23.4Z" transform="translate(0 -0.879)" fill="#6c63ff"/>
      <path id="Path_71" data-name="Path 71" d="M81.491,141.8s-7.457,14,1.122,26.922L200.654,194.1s-7.327-11.158.388-26.623Z" transform="translate(-28.146 -14.787)" fill="#6c63ff"/>
      <path id="Path_72" data-name="Path 72" d="M81.491,141.8s-7.457,14,1.122,26.922L200.654,194.1s-7.327-11.158.388-26.623Z" transform="translate(-28.146 -14.787)" opacity="0.1"/>
      <path id="Path_73" data-name="Path 73" d="M85.009,146.686s-4.255,10.241,0,16.868" transform="translate(-28.146 -14.825)" opacity="0.1"/>
      <path id="Path_74" data-name="Path 74" d="M200.667,194.308l65.9-20.967s3.686.788,1.3,3.468-65.932,20.178-65.932,20.178L82.626,168.928Z" transform="translate(-28.146 -14.997)" fill="#6c63ff"/>
      <path id="Path_75" data-name="Path 75" d="M200.667,194.308l65.9-20.967s3.686.788,1.3,3.468-65.932,20.178-65.932,20.178L82.626,168.928Z" transform="translate(-28.146 -14.997)" opacity="0.1"/>
      <path id="Path_76" data-name="Path 76" d="M195.265,170.516s-6.355,7.567,0,18.917" transform="translate(-28.146 -15.009)" opacity="0.1"/>
      <path id="Path_168" data-name="Path 168" d="M0,0,30.026.07V.385L0,.316Z" transform="translate(169.385 164.818) rotate(-18.45)" opacity="0.1"/>
      <path id="Path_169" data-name="Path 169" d="M0,0,36.578.094V.41L0,.316Z" transform="translate(169.377 167.357) rotate(-20.82)" opacity="0.1"/>
      <path id="Path_170" data-name="Path 170" d="M0,0,42.39.115V.431L0,.316Z" transform="translate(169.56 170.346) rotate(-22.26)" opacity="0.1"/>
      <path id="Path_171" data-name="Path 171" d="M0,0,48.786.142V.457L0,.316Z" transform="matrix(0.911, -0.412, 0.412, 0.911, 170.027, 172.982)" opacity="0.1"/>
      <path id="Path_172" data-name="Path 172" d="M0,0,53.362.151V.467L0,.316Z" transform="matrix(0.916, -0.401, 0.401, 0.916, 170.377, 174.265)" opacity="0.1"/>
      <path id="Path_173" data-name="Path 173" d="M0,0,63.858.18V.5L0,.316Z" transform="translate(171.117 176.423) rotate(-23.36)" opacity="0.1"/>
      <path id="Path_77" data-name="Path 77" d="M82.918,129.462,138.841,117.8l34.068,6.463-45.825,14.661Z" transform="translate(0 -0.912)" fill="#fff" opacity="0.3"/>
      <path id="Path_78" data-name="Path 78" d="M266.567,144.09s2.891,1.157,1.195,2.945-66.707,20.459-66.707,20.459Z" transform="translate(-28.146 -14.805)" fill="#6c63ff"/>
      <path id="Path_79" data-name="Path 79" d="M126.779,47.636s-12.074-.722-10.663,7.684a2.044,2.044,0,0,0,1.074,2.16s.022-.631,1.239-.413a5.459,5.459,0,0,0,1.315.063,2.75,2.75,0,0,0,1.6-.656h0s3.4-1.394,4.718-6.9c0,0,.979-1.2.953-1.51l-2.046.864a3.612,3.612,0,0,1,.149,2.674s-.067-2.62-.461-2.56c-.079,0-1.058.508-1.058.508s1.2,2.544.292,4.392c0,0,.343-3.134-.667-4.209l-1.436.832s1.4,2.626.451,4.77c0,0,.245-3.288-.753-4.569l-1.3,1.009s1.319,2.589.515,4.367c0,0-.1-3.828-.794-4.118a7.816,7.816,0,0,0-1.312,1.406s.9,1.892.34,2.872c0,0-.34-2.551-.635-2.563a8.457,8.457,0,0,0-1.252,2.838,6.1,6.1,0,0,1,.975-3.008,3.412,3.412,0,0,0-1.735.892s.175-1.195,2.018-1.3A7.767,7.767,0,0,1,119.5,51.8a7.493,7.493,0,0,0-2.942.334s.979-1.126,3.276-.631l1.271-1.04a11.048,11.048,0,0,0-3.432.035s1.179-1,3.778-.271l1.4-.829a12.828,12.828,0,0,0-3.279-.281,5.069,5.069,0,0,1,3.689.057l1-.445s-1.5-.293-1.945-.341-.464-.167-.464-.167a5.284,5.284,0,0,1,2.828.315A12.662,12.662,0,0,0,126.779,47.636Z" transform="translate(-28.146 -14.06)" fill="#6c63ff"/>
      <path id="Path_80" data-name="Path 80" d="M296.644,82.454s-12.074-.722-10.663,7.684a2.044,2.044,0,0,0,1.074,2.16s.022-.631,1.239-.413a5.641,5.641,0,0,0,1.315.063,2.741,2.741,0,0,0,1.589-.656h0s3.4-1.394,4.718-6.9c0,0,.979-1.2.953-1.51l-2.04.864a3.613,3.613,0,0,1,.149,2.674s-.067-2.62-.458-2.56c-.079,0-1.061.508-1.061.508s1.2,2.544.3,4.392c0,0,.343-3.134-.67-4.209l-1.436.832s1.4,2.626.451,4.77c0,0,.245-3.288-.753-4.569l-1.3,1.009s1.315,2.589.512,4.367c0,0-.1-3.828-.794-4.118a7.932,7.932,0,0,0-1.312,1.406s.9,1.892.343,2.872c0,0-.343-2.551-.635-2.563a8.456,8.456,0,0,0-1.252,2.838,6.084,6.084,0,0,1,.979-3.008,3.428,3.428,0,0,0-1.738.892s.178-1.195,2.018-1.3a7.889,7.889,0,0,1,1.188-1.362,7.524,7.524,0,0,0-2.942.337s.979-1.126,3.276-.631l1.271-1.04a11.051,11.051,0,0,0-3.432.035s1.176-1,3.778-.271l1.4-.829a12.828,12.828,0,0,0-3.279-.281,5.069,5.069,0,0,1,3.689.057l1-.445s-1.506-.293-1.948-.34-.464-.167-.464-.167a5.245,5.245,0,0,1,2.828.315A12.872,12.872,0,0,0,296.644,82.454Z" transform="translate(-28.146 -14.329)" fill="#6c63ff" opacity="0.1"/>
      <path id="Path_81" data-name="Path 81" d="M147.115,99.914s-5.262-10.824-11.96-5.489a2.051,2.051,0,0,0-1.376,1.983s.556-.287.953.873a5.568,5.568,0,0,0,.585,1.167,2.739,2.739,0,0,0,1.363,1.072h0s2.882,2.264,8.376.719a5.477,5.477,0,0,0,1.786.079l-1.754-1.346a3.688,3.688,0,0,1-2.281,1.431s2.275-1.334,2.03-1.643c-.051-.063-.953-.672-.953-.672s-1.655,2.28-3.721,2.4c0,0,2.923-1.23,3.374-2.633l-1.43-.839s-1.63,2.5-3.978,2.718c0,0,3.012-1.39,3.651-2.879l-1.519-.631s-1.636,2.4-3.594,2.576c0,0,3.317-1.958,3.235-2.7a8.1,8.1,0,0,0-1.878-.451s-1.214,1.7-2.358,1.7c0,0,2.075-1.542,1.948-1.791a8.445,8.445,0,0,0-3.114.315,6.227,6.227,0,0,1,3.123-.631,3.424,3.424,0,0,0-1.633-1.069s1.138-.429,2.126,1.113a7.892,7.892,0,0,1,1.776.366,7.4,7.4,0,0,0-1.729-2.38s1.468.293,2.138,2.522l1.541.605a10.494,10.494,0,0,0-1.7-2.954s1.449.533,2.081,3.153l1.411.807a12.426,12.426,0,0,0-1.35-2.976,4.991,4.991,0,0,1,1.748,3.222l.88.649s-.477-1.447-.635-1.851-.079-.486-.079-.486a5.153,5.153,0,0,1,1.106,2.6A11.846,11.846,0,0,0,147.115,99.914Z" transform="translate(-28.146 -14.41)" fill="#6c63ff" opacity="0.1"/>
      <path id="Path_82" data-name="Path 82" d="M269.058,66.989S263.8,56.166,257.1,61.5a2.055,2.055,0,0,0-1.376,1.983s.559-.284.953.873a5.451,5.451,0,0,0,.588,1.17,2.723,2.723,0,0,0,1.36,1.069h0s2.885,2.264,8.376.722a5.5,5.5,0,0,0,1.789.076l-1.744-1.349a3.687,3.687,0,0,1-2.278,1.435s2.272-1.337,2.027-1.646c-.051-.063-.953-.672-.953-.672s-1.652,2.28-3.721,2.4c0,0,2.926-1.23,3.378-2.63l-1.452-.832s-1.627,2.494-3.978,2.718c0,0,3.012-1.394,3.654-2.882L262.2,63.3s-1.636,2.406-3.59,2.576c0,0,3.314-1.958,3.231-2.7a7.909,7.909,0,0,0-1.875-.451s-1.214,1.7-2.361,1.7c0,0,2.078-1.542,1.951-1.791a8.464,8.464,0,0,0-3.117.315,6.224,6.224,0,0,1,3.123-.631,3.4,3.4,0,0,0-1.63-1.069s1.138-.429,2.126,1.113a7.919,7.919,0,0,1,1.776.369,7.377,7.377,0,0,0-1.732-2.384s1.468.3,2.138,2.538l1.544.605a10.5,10.5,0,0,0-1.7-2.957s1.449.533,2.078,3.153l1.414.807a12.542,12.542,0,0,0-1.354-2.976,4.975,4.975,0,0,1,1.748,3.222l.88.649s-.473-1.447-.635-1.851-.079-.482-.079-.482a5.166,5.166,0,0,1,1.1,2.6A12.2,12.2,0,0,0,269.058,66.989Z" transform="translate(-28.146 -14.156)" fill="#6c63ff" opacity="0.1"/>
      <path id="Path_83" data-name="Path 83" d="M285.863,120.945s-5.259-10.827-11.969-5.492a2.055,2.055,0,0,0-1.376,1.983s.559-.284.953.873a5.447,5.447,0,0,0,.585,1.17,2.723,2.723,0,0,0,1.36,1.069h0s2.885,2.267,8.379.722c0,0,1.532.262,1.786.076L283.826,120a3.687,3.687,0,0,1-2.281,1.435s2.272-1.337,2.027-1.646c-.051-.063-.953-.672-.953-.672s-1.652,2.28-3.721,2.4c0,0,2.926-1.233,3.378-2.633l-1.433-.839s-1.627,2.5-3.978,2.718c0,0,3.012-1.394,3.654-2.882L279,117.25s-1.636,2.4-3.59,2.576c0,0,3.317-1.958,3.235-2.7a7.944,7.944,0,0,0-1.878-.451s-1.214,1.7-2.361,1.7c0,0,2.078-1.542,1.951-1.791a8.464,8.464,0,0,0-3.117.315,6.243,6.243,0,0,1,3.127-.631,3.4,3.4,0,0,0-1.633-1.069s1.138-.432,2.126,1.113a7.892,7.892,0,0,1,1.776.366,7.435,7.435,0,0,0-1.729-2.384s1.468.3,2.138,2.538l1.541.605a10.451,10.451,0,0,0-1.7-2.954s1.449.53,2.078,3.153l1.414.8a12.541,12.541,0,0,0-1.354-2.976,4.987,4.987,0,0,1,1.751,3.225l.88.631s-.477-1.447-.635-1.851-.079-.482-.079-.482a5.134,5.134,0,0,1,1.1,2.6A12.856,12.856,0,0,0,285.863,120.945Z" transform="translate(-28.146 -14.572)" fill="#6c63ff" opacity="0.1"/>
      <ellipse id="Ellipse_1" data-name="Ellipse 1" cx="7.305" cy="0.81" rx="7.305" ry="0.81" transform="translate(56.863 245.614)" fill="#6c63ff" opacity="0.1"/>
      <ellipse id="Ellipse_2" data-name="Ellipse 2" cx="7.305" cy="0.81" rx="7.305" ry="0.81" transform="translate(8.976 231.842)" fill="#6c63ff" opacity="0.1"/>
      <ellipse id="Ellipse_3" data-name="Ellipse 3" cx="7.305" cy="0.81" rx="7.305" ry="0.81" transform="translate(93.365 254.76)" fill="#6c63ff" opacity="0.1"/>
      <ellipse id="Ellipse_4" data-name="Ellipse 4" cx="7.305" cy="0.81" rx="7.305" ry="0.81" transform="translate(280.42 234.837)" fill="#6c63ff" opacity="0.1"/>
      <ellipse id="Ellipse_5" data-name="Ellipse 5" cx="7.305" cy="0.81" rx="7.305" ry="0.81" transform="translate(219.633 230.905)" fill="#6c63ff" opacity="0.1"/>
      <ellipse id="Ellipse_6" data-name="Ellipse 6" cx="8.639" cy="1.472" rx="8.639" ry="1.472" transform="translate(178.975 248.757)" fill="#6c63ff" opacity="0.1"/>
      <path id="Path_84" data-name="Path 84" d="M219.614,251.061s-12.03,6.167-5.815,13.431a2.323,2.323,0,0,0,2.275,1.466s-.337-.612.953-1.1a6.21,6.21,0,0,0,1.3-.684,3.032,3.032,0,0,0,1.163-1.542h0s2.459-3.266.553-9.311c0,0,.248-1.709.032-1.986l-1.462,1.989a4.064,4.064,0,0,1,1.684,2.484s-1.589-2.481-1.906-2.207c-.07.057-.724,1.088-.724,1.088s2.618,1.763,2.812,4.051c0,0-1.474-3.206-3.066-3.664l-.912,1.614s2.86,1.728,3.177,4.326c0,0-1.662-3.295-3.359-3.96l-.67,1.706s2.758,1.74,3.012,3.9c0,0-2.307-3.616-3.136-3.5a8.684,8.684,0,0,0-.451,2.1s1.948,1.293,1.983,2.563c0,0-1.8-2.254-2.075-2.106a9.432,9.432,0,0,0,.438,3.446,6.762,6.762,0,0,1-.8-3.446,3.779,3.779,0,0,0-1.153,1.841s-.518-1.245,1.188-2.393a8.663,8.663,0,0,1,.359-1.98,8.372,8.372,0,0,0-2.631,1.993s.289-1.636,2.793-2.45l.635-1.728a11.862,11.862,0,0,0-3.276,1.98s.556-1.624,3.473-2.4l.864-1.576a14.641,14.641,0,0,0-3.311,1.576s.842-1.4,3.578-2.04l.7-.993s-1.614.571-2.065.776-.54.1-.54.1a5.864,5.864,0,0,1,2.895-1.305A14.051,14.051,0,0,0,219.614,251.061Z" transform="translate(-28.146 -15.631)" fill="#6c63ff"/>
      <path id="Path_85" data-name="Path 85" d="M255.318,132.752c-2.078-5.6-13.517-6.129-18.48-4.7a149.412,149.412,0,0,1-14.934,2.743l-.257-.243c.515-.151.527-.523.464-1.075a16.7,16.7,0,0,1,.032-2.182,5.443,5.443,0,0,0,4.6-1.025h0c2.86-1.261,2.091-6.659,2.637-8.134.41-1.1.852-7.6,1.049-10.846h.041l.022-1.088c.029-.47.041-.744.041-.744s.28-7.926.826-9.531c.508-1.476.921-8.91.985-10.089v-.154l-.041-.687c.029-.5.041-1.059.038-1.646,0-2.7-.283-6.091-.318-6.64v-.287c.022-1.151-.124-6.914-5.065-9.093-1.821-.807-4.01-1.769-6.129-2.705-.547-4.682-1.8-9.339-1.687-14.056,0-.709.064-1.419.133-2.125,0,.2-.022.413-.025.631v1.375c.187-5.9,2.434-11.83,2.224-17.6-.019.564-.06,1.132-.114,1.7a18.192,18.192,0,0,0-.61-5.8,3.424,3.424,0,0,0-1-1.8,4.127,4.127,0,0,0-1.741-.684,35.263,35.263,0,0,0-4.572-.845,6.986,6.986,0,0,0-1.029-1.983c-3.222-4.389-7.994-8.513-13.637-9.459-2.831-.473-6.088-.079-8.013,1.93a5.987,5.987,0,0,0-.566.568c-1.036,1.226-1.481,2.838-2.542,4.061-.07.082-.149.158-.226.236-2.078,1.844-5.316,2.229-7.626,3.884a9.135,9.135,0,0,0-1.141.987,19.226,19.226,0,0,0-2.491,3,12.429,12.429,0,0,0-2.437,4.691c-.664,3.468,1.716,6.757,2.157,10.247.985,7.81-7.724,14.74-6.075,22.445a10.257,10.257,0,0,0,2.8,4.991c-3.4,3.052-6.288,6.013-6.288,6.013v.177h-.537l.054.631h-.054l.3,3.421-.3,4.982v.47h.019c.1,1.826.489,8.39.953,9.774.547,1.6.823,9.531.823,9.531s.6,11.2,1.157,12.684-.232,6.864,2.637,8.134h0a6.063,6.063,0,0,0,2.882,1.186c-.146,1.179-.054,2.034.419,2.3a1.393,1.393,0,0,0,.667.189,7.014,7.014,0,0,0-.518.9,13.546,13.546,0,0,1-3.33-.779c-3.082-1.261-13.31-4.1-16.281-2.1s-10.12,3.806-6.819,11.839,4.839,8.235,4.839,8.235a11.71,11.71,0,0,1,2.64,2.633c.991,1.479,10.228,4.862,12.538,4.862a22.789,22.789,0,0,1,2.939.145s-2.507,2.182-2.173,3.449-.763,11.413-.763,11.413,2.542,2.541,3.629-.791l.038.05c.2.274,1.3,1.513,3.371-.05a18.919,18.919,0,0,1,2.688-1.69l10.015-1.406a28.567,28.567,0,0,1,3.136-.022,6.583,6.583,0,0,0,4.131-1.526c2.075.782,4.407,1.636,5.516,1.948,2.25.631,12.589,3.383,15.007,2.522a3.358,3.358,0,0,0,1.3-.921l2.307.073-1.08.214s2.1.035,4.963.073l-.121.069,3.587-.032c5.249.047,11.146.063,11.922-.11a84.4,84.4,0,0,1,9.38,0h.518s6.93-1.372,4.07-8.349c-2.2-5.36-8.957-6.917-11.957-7.346.845-.167,1.573-.3,2.056-.372,2.094-.315,6.161-2.207,6.491-2.853s3.74-2.522,4.62-3.591S257.406,138.354,255.318,132.752Zm-57.4,15.679-.34.11-.229.076-.438.429c-.35-.233-.724-.479-1.115-.731C196.485,148.355,197.194,148.4,197.918,148.431Zm30.284,8.885Z" transform="translate(-28.146 -13.799)" fill="url(#linear-gradient)"/>
      <path id="Path_86" data-name="Path 86" d="M218.178,115.673s4.861,12.612,7.626,11.35,2.014-6.621,2.542-8.09,1.112-12.612,1.112-12.612.267-7.882.794-9.478c.489-1.466.886-8.86.953-10.023v-.154l-.524-9.143-2.968-.735-6.882,2.522-.953,5.4-.372,2.109-.159.9Z" transform="translate(-28.146 -14.285)" fill="#be6f72"/>
      <path id="Path_87" data-name="Path 87" d="M219.779,113.847s4.639,3.768,6.037,4.1,2.256,3.27,2.256,3.27" transform="translate(-28.146 -14.571)" opacity="0.1"/>
      <path id="Path_88" data-name="Path 88" d="M180.16,116.229s-4.861,12.612-7.626,11.35-2.014-6.621-2.542-8.09-1.112-12.612-1.112-12.612-.267-7.882-.794-9.478c-.489-1.466-.886-8.86-.953-10.023v-.154l.527-9.143,2.968-.735,6.882,2.522.953,5.4.372,2.109.159.9Z" transform="translate(-28.146 -14.289)" fill="#be6f72"/>
      <rect id="Rectangle_21" data-name="Rectangle 21" width="10.851" height="16.783" transform="translate(172.82 34.449)" fill="#3e373a"/>
      <rect id="Rectangle_22" data-name="Rectangle 22" width="10.851" height="16.783" transform="translate(172.82 34.449)" opacity="0.1"/>
      <path id="Path_89" data-name="Path 89" d="M178.253,129.183s-3.708,4.045-2.332,4.78,10.276,14.5,10.276,14.5,29.232,3.572,34.745-1.788,5.4-14.935,5.4-14.935-4.429.946-4.912.432-3.136-2.992-3.136-2.992S180.8,126.925,178.253,129.183Z" transform="translate(-28.146 -14.682)" fill="#4b4b5b"/>
      <path id="Path_90" data-name="Path 90" d="M178.253,129.183s-3.708,4.045-2.332,4.78,10.276,14.5,10.276,14.5,29.232,3.572,34.745-1.788,5.4-14.935,5.4-14.935-4.429.946-4.912.432-3.136-2.992-3.136-2.992S180.8,126.925,178.253,129.183Z" transform="translate(-28.146 -14.682)" opacity="0.02"/>
      <path id="Path_91" data-name="Path 91" d="M230.878,77.437,221.346,85l-2.882.208-1.058.076L199.634,86.58l-18.429-1.337-2.742-.2-3.5-.252-7.308-6.936a124.718,124.718,0,0,1,9.7-9.21,19.922,19.922,0,0,1,4.7-3.118l.21-.073a5.231,5.231,0,0,0,2.014-1.394c3.578-3.66,6.885-12.694,6.885-12.694s15.782-8.09,13.876,2.522,7.1,7.989,7.1,7.989l2.968,1.343,1.172.533,2.99,1.359,6.746,3.071C231.316,70.6,230.878,77.437,230.878,77.437Z" transform="translate(-28.146 -14.066)" fill="#be6f72"/>
      <ellipse id="Ellipse_7" data-name="Ellipse 7" cx="14.194" cy="14.084" rx="14.194" ry="14.084" transform="translate(156.555 17.777)" opacity="0.1"/>
      <path id="Path_92" data-name="Path 92" d="M230.9,87.6H167.132v-.154l.527-9.143a124.716,124.716,0,0,1,9.7-9.21L217.4,67.518l1.862-1.948,6.746,3.071c5.3,2.415,4.871,9.247,4.871,9.247S231.6,85.8,230.9,87.6Z" transform="translate(-28.146 -14.199)" opacity="0.1"/>
      <path id="Path_93" data-name="Path 93" d="M230.9,87.284H167.132v-.154l.527-9.143a124.719,124.719,0,0,1,9.7-9.21L217.4,67.2l1.862-1.948,6.746,3.071c5.3,2.415,4.871,9.247,4.871,9.247S231.6,85.487,230.9,87.284Z" transform="translate(-28.146 -14.196)" fill="#e7c7ca"/>
      <path id="Path_94" data-name="Path 94" d="M188.672,61.6s10.06,12.719,23.459-.262,1.484,28.953,1.484,28.953L184.7,93.691Z" transform="translate(-28.146 -14.147)" opacity="0.1"/>
      <path id="Path_95" data-name="Path 95" d="M188.672,62.231s10.06,12.719,23.459-.262,1.484,28.953,1.484,28.953L184.7,94.327Z" transform="translate(-28.146 -14.151)" fill="#e7c7ca"/>
      <path id="Path_96" data-name="Path 96" d="M216.271,64.5l1.064,16.108,1.141,5.36.871,4.1s2.224,31.529,1.589,33.105.318,2.838.451,3.676-.133,2.945-.029,3.891,0,1.365-2.434,1.028-5.827-.924-5.827-.924-8.579.631-11.544-.419-8.579-1.053-8.579-1.053-8.474.211-11.226-.1-4.239,3.364-6.037,2.311,2.116-11.243,3.387-14.188-1.694-10.4-1.694-10.4l3.813-20.989.848-4.758V66.279l.21-.073a5.23,5.23,0,0,0,2.014-1.394l.953,15.052,29.868,1.053V63.977" transform="translate(-28.146 -14.186)" opacity="0.1"/>
      <path id="Path_97" data-name="Path 97" d="M216.271,63.862l1.064,16.108,1.141,5.36.871,4.1s2.224,31.529,1.589,33.105.318,2.838.451,3.676-.133,2.945-.029,3.891,0,1.365-2.434,1.028-5.827-.924-5.827-.924-8.579.631-11.544-.419-8.579-1.053-8.579-1.053-8.474.211-11.226-.1-4.239,3.364-6.037,2.311,2.116-11.243,3.387-14.188-1.694-10.4-1.694-10.4l3.813-20.989.848-4.758V65.644l.21-.073a5.23,5.23,0,0,0,2.014-1.394l.953,15.052,29.868,1.053V63.342" transform="translate(-28.146 -14.181)" fill="#e7c7ca"/>
      <path id="Path_98" data-name="Path 98" d="M219.706,29.873a3.466,3.466,0,0,0-.953-1.785,3.919,3.919,0,0,0-1.678-.681,33.378,33.378,0,0,0-4.41-.839,6.982,6.982,0,0,0-.953-1.964c-3.114-4.364-7.721-8.478-13.142-9.408-2.837-.489-6.126-.05-7.944,2.169-1,1.22-1.427,2.838-2.434,4.036-1.941,2.327-5.446,2.614-7.893,4.414a14.543,14.543,0,0,0-3.177,3.648,12.476,12.476,0,0,0-2.348,4.663c-.635,3.44,1.655,6.719,2.078,10.19.953,7.766-7.435,14.655-5.85,22.316.925,4.468,5.084,7.614,9.386,9.21,1.516.564,3.247,1.126,3.956,2.57.318.631.372,1.359.67,2,1,2.125,4.305,2.207,6.078.659s2.332-4.051,2.542-6.388c.852-10.2-3.266-20.282-2.787-30.51.143-3.093,1.02-6.6,3.813-8,3.759-1.892,8.28,1.261,12.417.659a24.268,24.268,0,0,1,1.188,14.916c-.658,2.721-1.8,5.36-1.878,8.166-.124,4.272,2.2,8.175,4.207,11.953a6.328,6.328,0,0,1,.848,2.3,5.517,5.517,0,0,1-.454,2.412c-1.134,3.03-3.092,5.842-3.314,9.068a1.457,1.457,0,0,0,.238,1.078,1.371,1.371,0,0,0,.82.366c3.432.583,6.4-2.434,8.074-5.464a25.467,25.467,0,0,0,3.184-10.884c.346-6.419-1.973-12.734-1.83-19.16C218.327,44.275,221.654,36.92,219.706,29.873Z" transform="translate(-28.146 -13.808)" opacity="0.1"/>
      <path id="Path_99" data-name="Path 99" d="M220.024,29.555a3.466,3.466,0,0,0-.953-1.785,3.919,3.919,0,0,0-1.678-.681,33.376,33.376,0,0,0-4.41-.839,6.983,6.983,0,0,0-.953-1.964c-3.114-4.364-7.721-8.478-13.142-9.408-2.837-.489-6.126-.05-7.944,2.169-1,1.22-1.427,2.838-2.434,4.036-1.941,2.327-5.446,2.614-7.893,4.414a14.543,14.543,0,0,0-3.177,3.648,12.477,12.477,0,0,0-2.348,4.663c-.635,3.44,1.655,6.719,2.078,10.19.953,7.766-7.435,14.655-5.85,22.316.925,4.468,5.084,7.614,9.386,9.21,1.516.564,3.247,1.126,3.956,2.57.318.631.372,1.359.67,2,1,2.125,4.305,2.207,6.078.659s2.332-4.051,2.542-6.388c.852-10.2-3.266-20.283-2.787-30.51.143-3.093,1.02-6.6,3.813-8,3.759-1.892,8.28,1.261,12.417.659a24.268,24.268,0,0,1,1.188,14.916c-.658,2.721-1.8,5.36-1.878,8.166-.124,4.272,2.2,8.175,4.207,11.953a6.329,6.329,0,0,1,.848,2.3,5.518,5.518,0,0,1-.454,2.412c-1.134,3.03-3.092,5.842-3.314,9.068a1.457,1.457,0,0,0,.238,1.078,1.371,1.371,0,0,0,.82.366c3.432.583,6.4-2.434,8.074-5.464a25.467,25.467,0,0,0,3.184-10.884c.346-6.419-1.973-12.735-1.83-19.16C218.645,43.958,221.971,36.6,220.024,29.555Z" transform="translate(-28.146 -13.806)" fill="#3e373a"/>
      <path id="Path_100" data-name="Path 100" d="M184.859,156.492l12.6.4-1.808-9.276-9.656.911Z" transform="translate(0 -1.142)" fill="#c3c7d9"/>
      <path id="Path_101" data-name="Path 101" d="M252.062,148.049c-.848,1.05-4.131,2.942-4.448,3.572s-4.236,2.522-6.25,2.838-8.366,1.684-9.532,2.418c-.836.53-7.543,2.207-11.95,3.137a34.167,34.167,0,0,1-3.619.646c-1.906.1-22.769-6.936-22.769-6.936l4.023-4.1.222-.076c1.138-.382,6.393-2.144,9.31-2.983,3.285-.946,7.1-4.833,7.1-4.833s5.611-1.892,6.355-2.1-1.906-7.356-1.906-7.356,12.179-1.677,16.945-3.1,15.782-.9,17.794,4.676S252.923,147,252.062,148.049Z" transform="translate(-28.146 -14.685)" fill="#4b4b5b"/>
      <path id="Path_102" data-name="Path 102" d="M196.562,166.013s-2.434,2.522-4.871,2.314-10.959.631-10.959.631a17.116,17.116,0,0,0-4.293,2.469c-1.992,1.558-3.05.315-3.247.05l-.035-.05c-1.061,3.314-3.5.788-3.5.788s1.058-10.089.734-11.35,2.094-3.427,2.094-3.427l2.86-.722,7.245-1.841,10.381,3.572Z" transform="translate(-28.146 -14.888)" fill="#e7c7ca"/>
      <path id="Path_103" data-name="Path 103" d="M175.336,156.729l-2.145,14.762-.035-.05c-1.061,3.314-3.5.788-3.5.788s1.058-10.089.734-11.35,2.094-3.427,2.094-3.427Z" transform="translate(-28.146 -14.902)" opacity="0.1"/>
      <path id="Path_104" data-name="Path 104" d="M190.328,114.413s5.611,1.892,10.485,0" transform="translate(-28.146 -14.576)" opacity="0.1"/>
      <path id="Path_105" data-name="Path 105" d="M209.484,118.016s2.329,1.154,4.131,0" transform="translate(-28.146 -14.604)" opacity="0.1"/>
      <path id="Path_106" data-name="Path 106" d="M209.484,120.77s3.918.52,4.661-.53" transform="translate(-28.146 -14.621)" opacity="0.1"/>
      <path id="Path_107" data-name="Path 107" d="M208.213,126.682s7.359-.946,9.186-2.207" transform="translate(-28.146 -14.653)" opacity="0.1"/>
      <path id="Path_108" data-name="Path 108" d="M185.758,124.475s4.131,2.311,7.2,2.207" transform="translate(-28.146 -14.653)" opacity="0.1"/>
      <path id="Path_109" data-name="Path 109" d="M219.878,160.178a34.165,34.165,0,0,1-3.619.646c-1.906.1-22.769-6.936-22.769-6.936l4.023-4.1.222-.076c.635.445,1.157.826,1.528,1.116,1.751,1.368,3.441-.419,4.077-.419s6.142,4.518,6.142,4.518,5.084,1.157,5.932,2.207,3.813.842,4.34,1.576A2.792,2.792,0,0,1,219.878,160.178Z" transform="translate(-28.146 -14.848)" opacity="0.1"/>
      <path id="Path_110" data-name="Path 110" d="M180.732,132.708s-5.141.293-8.106-.946-12.815-4.1-15.674-2.09-9.745,3.783-6.568,11.773,4.661,8.2,4.661,8.2a11.422,11.422,0,0,1,2.542,2.617c.953,1.472,9.85,4.833,12.074,4.833s6.142,0,11.648,3.783a24.057,24.057,0,0,0,10.485,4.206s6.99,2.838,9.167,3.468,12.122,3.361,14.454,2.522,3.813-6.1,3.813-6.1,1.058-4.729.527-5.464-3.5-.527-4.34-1.576-5.932-2.207-5.932-2.207-5.494-4.521-6.129-4.521-2.326,1.785-4.077.419a93.1,93.1,0,0,0-10.965-6.936C184.29,142.586,180.732,132.708,180.732,132.708Z" transform="translate(-28.146 -14.688)" fill="#4b4b5b"/>
      <path id="Path_111" data-name="Path 111" d="M170.4,135.808a6.1,6.1,0,0,1,5.208,1.365c2.542,2.1,11.1,6.325,11.1,6.325" transform="translate(-28.146 -14.74)" opacity="0.1"/>
      <path id="Path_112" data-name="Path 112" d="M233.95,135.676s-11.334,1.7-13.45,4.014" transform="translate(-28.146 -14.74)" opacity="0.1"/>
      <path id="Path_113" data-name="Path 113" d="M246.978,170.638h-.5a86.109,86.109,0,0,0-9.033,0c-1.376.315-19.6,0-19.6,0l3.562-.735s-1.322-4.6-.483-4.978c0,0-4.766-3.115-1.172-5.218a11.226,11.226,0,0,1,7.467-1.217l9.021-3.033,1.732-.583s10.168.527,12.919,7.463S246.978,170.638,246.978,170.638Z" transform="translate(-28.146 -14.888)" fill="#e7c7ca"/>
      <path id="Path_114" data-name="Path 114" d="M246.978,170.638h-.5c2.958-2.421,9.65-9.793-10.234-15.165l1.732-.583s10.168.527,12.919,7.463S246.978,170.638,246.978,170.638Z" transform="translate(-28.146 -14.888)" opacity="0.1"/>
      <ellipse id="Ellipse_8" data-name="Ellipse 8" cx="0.556" cy="0.552" rx="0.556" ry="0.552" transform="translate(199.583 146.474)" fill="#4b4b5b"/>
      <ellipse id="Ellipse_9" data-name="Ellipse 9" cx="0.556" cy="0.552" rx="0.556" ry="0.552" transform="translate(196.352 147.386)" fill="#4b4b5b"/>
      <g id="Group_1" data-name="Group 1" transform="translate(143.061 19.826)" opacity="0.1">
        <path id="Path_115" data-name="Path 115" d="M209.309,45.294a24.3,24.3,0,0,0-1.824-10.133c-4.131.612-8.655-2.551-12.417-.659-2.783,1.4-3.657,4.909-3.813,8-.038.817-.044,1.633-.029,2.45,0-.29,0-.583.029-.873.146-3.093,1.02-6.6,3.813-8,3.762-1.892,8.28,1.261,12.417.659a24.236,24.236,0,0,1,1.824,8.557Z" transform="translate(-171.207 -33.78)"/>
        <path id="Path_116" data-name="Path 116" d="M177.3,44.722a10.428,10.428,0,0,0-.041-2.062c-.337-2.775-1.865-5.426-2.142-8.131-.356,3.263,1.738,6.4,2.142,9.708A1.956,1.956,0,0,1,177.3,44.722Z" transform="translate(-171.207 -33.785)"/>
        <path id="Path_117" data-name="Path 117" d="M194.042,73.244c-.2,2.339-.753,4.84-2.542,6.391s-5.084,1.466-6.078-.659c-.318-.631-.365-1.365-.674-2-.705-1.444-2.44-2.005-3.956-2.57-4.305-1.6-8.458-4.729-9.383-9.21a9.6,9.6,0,0,1-.168-1.23,9.862,9.862,0,0,0,.168,2.806c.925,4.468,5.084,7.611,9.383,9.21,1.516.564,3.25,1.126,3.956,2.57.318.631.372,1.359.674,2,1,2.125,4.3,2.207,6.078.659s2.329-4.051,2.542-6.391a35.749,35.749,0,0,0,.1-3.7C194.14,71.834,194.1,72.541,194.042,73.244Z" transform="translate(-171.207 -34.012)"/>
        <path id="Path_118" data-name="Path 118" d="M218.584,49.916v1.365c.178-5.864,2.345-11.76,2.132-17.5C220.551,39.089,218.705,44.518,218.584,49.916Z" transform="translate(-171.207 -33.779)"/>
        <path id="Path_119" data-name="Path 119" d="M211.766,73.837a4.034,4.034,0,0,0,.073-1.138,6.275,6.275,0,0,0-.848-2.3c-1.837-3.468-3.93-7.018-4.178-10.868,0,.164-.022.315-.025.492-.127,4.269,2.2,8.175,4.2,11.953a7.535,7.535,0,0,1,.775,1.867Z" transform="translate(-171.207 -33.978)"/>
        <path id="Path_120" data-name="Path 120" d="M220.411,69.345a25.508,25.508,0,0,1-3.206,10.884c-1.678,3.03-4.642,6.047-8.077,5.464a1.355,1.355,0,0,1-.82-.369.787.787,0,0,1-.149-.246c-.038.246-.07.5-.089.747a1.445,1.445,0,0,0,.238,1.075,1.355,1.355,0,0,0,.82.369c3.435.583,6.4-2.434,8.077-5.464a25.509,25.509,0,0,0,3.206-10.884c.038-.738.041-1.472.019-2.207C220.424,68.926,220.424,69.134,220.411,69.345Z" transform="translate(-171.207 -34.049)"/>
      </g>
      <path id="Path_121" data-name="Path 121" d="M220.929,164.972s8.042,3.348,13.345-4.061" transform="translate(-28.146 -14.935)" fill="none" stroke="#000" stroke-miterlimit="10" stroke-width="0.318" opacity="0.1"/>
      <path id="Path_122" data-name="Path 122" d="M222.512,170.886a15.784,15.784,0,0,1,14.934-.139" transform="translate(-28.146 -14.997)" fill="none" stroke="#000" stroke-miterlimit="10" stroke-width="0.318" opacity="0.1"/>
      <path id="Path_123" data-name="Path 123" d="M178.549,169.906s2.758-6.173,10.123-1.466" transform="translate(-28.146 -14.979)" fill="none" stroke="#000" stroke-miterlimit="10" stroke-width="0.318" opacity="0.1"/>
      <path id="Path_124" data-name="Path 124" d="M169.608,77.878l5.624-5.045s21.807-1.419,22.709,5.937c0,0,7.731-8.721,23.99-6.779l6.879,5.436L209.8,85.707l-18.477,6.359L177.71,86.022Z" transform="translate(-28.146 -14.246)" opacity="0.1"/>
      <path id="Path_125" data-name="Path 125" d="M169.608,78.2l5.624-5.045s21.807-1.419,22.709,5.937c0,0,7.731-8.721,23.99-6.779l6.879,5.436L209.8,86.025l-18.477,6.359L177.71,86.34Z" transform="translate(-28.146 -14.248)" fill="#d5d6db"/>
      <path id="Path_126" data-name="Path 126" d="M138.974,65.083l2.488,29.533,26.373,1.315-1.144-29.407-.022-.5Z" transform="translate(0 -0.505)" opacity="0.1"/>
      <path id="Path_127" data-name="Path 127" d="M138.974,64.448l2.488,29.533L167.835,95.3l-1.144-29.407-.022-.5Z" transform="translate(0 -0.5)" fill="#6c63ff"/>
      <path id="Path_128" data-name="Path 128" d="M201.871,64.448,174.666,68.5V98.161l26.585-3.812Z" transform="translate(0 -0.5)" opacity="0.1"/>
      <path id="Path_129" data-name="Path 129" d="M201.871,63.812,174.666,67.86V97.526l26.585-3.812Z" transform="translate(0 -0.495)" fill="#6c63ff"/>
      <path id="Path_130" data-name="Path 130" d="M195.456,71.108l-14.7,1.621.321,4.969,14.365-1.558Z" transform="translate(0 -0.551)" fill="#fff" opacity="0.3"/>
      <path id="Path_131" data-name="Path 131" d="M171.037,123.74l1.5,3.995s2.224,1.892,4.658.946,4.556-1.416,5.614-2.336,2.542-5.546,2.542-5.546,1.484-5.045,2.965-6.306,5.4-18.637,0-16.937-9.532,17.464-9.532,17.464a3.773,3.773,0,0,1-2.329,1.261c-1.376.107-4.131-.211-4.661.946S169.449,121.429,171.037,123.74Z" transform="translate(-28.146 -14.445)" fill="#be6f72"/>
      <path id="Path_132" data-name="Path 132" d="M202.812,82.305a9.2,9.2,0,0,1-7.978-1.974l1.147,29.4a8.119,8.119,0,0,0,6.831,2.239Z" transform="translate(-28.146 -14.313)" opacity="0.1"/>
      <path id="Path_133" data-name="Path 133" d="M202.812,81.67a9.2,9.2,0,0,1-7.978-1.974l1.147,29.4a8.119,8.119,0,0,0,6.831,2.239Z" transform="translate(-28.146 -14.308)" fill="#6c63ff"/>
      <path id="Path_134" data-name="Path 134" d="M202.812,81.67a9.2,9.2,0,0,1-7.978-1.974l1.147,29.4a8.119,8.119,0,0,0,6.831,2.239Z" transform="translate(-28.146 -14.308)" opacity="0.1"/>
      <path id="Path_135" data-name="Path 135" d="M203.447,78.323s11.067-3.358,13.952-2.885" transform="translate(-28.146 -14.274)" opacity="0.1"/>
      <path id="Path_136" data-name="Path 136" d="M191.068,76.853s-10.727-2.522-12.519-1.807" transform="translate(-28.146 -14.271)" opacity="0.1"/>
      <path id="Path_137" data-name="Path 137" d="M210.425,78.755s7.4-2.693,10.076-1.412" transform="translate(-28.146 -14.287)" opacity="0.1"/>
      <path id="Path_138" data-name="Path 138" d="M206.7,146.8a24.36,24.36,0,0,1,3.648-2.248,59.6,59.6,0,0,0,5.4-3.276" transform="translate(-28.146 -14.783)" opacity="0.1"/>
      <path id="Path_139" data-name="Path 139" d="M178.549,114.413s-4.642,3.768-6.037,4.1-2.256,3.27-2.256,3.27" transform="translate(-28.146 -14.576)" opacity="0.1"/>
      <path id="Path_140" data-name="Path 140" d="M227.287,123.175l-1.481,4s-2.224,1.892-4.661.946-4.553-1.416-5.615-2.336-2.542-5.546-2.542-5.546-1.481-5.045-2.965-6.306-5.4-18.637,0-16.937,9.532,17.464,9.532,17.464a3.773,3.773,0,0,0,2.329,1.261c1.376.107,4.131-.211,4.661.946S228.876,120.873,227.287,123.175Z" transform="translate(-28.146 -14.44)" fill="#be6f72"/>
      <path id="Path_141" data-name="Path 141" d="M224.691,115.957s3.034,1.936,3.022,4.25" transform="translate(-28.146 -14.588)" opacity="0.1"/>
      <ellipse id="Ellipse_10" data-name="Ellipse 10" cx="14.194" cy="14.084" rx="14.194" ry="14.084" transform="translate(156.606 17.086)" fill="#be6f72"/>
      <path id="Path_142" data-name="Path 142" d="M190.032,41.286c1.722-.268,3.231-1.261,4.877-1.832,3.683-1.283,7.756-.4,11.483.754a14.991,14.991,0,0,0,4.382.946,4.446,4.446,0,0,0,3.857-1.892,4.248,4.248,0,0,0-.025-3.951,11.144,11.144,0,0,0-2.593-3.175c-3.3-3.1-7.4-5.99-11.938-5.675a16.527,16.527,0,0,0-5.246,1.491,58.008,58.008,0,0,0-6.158,3.077c-1.528.88-4.359,2.056-5.24,3.664C181.431,38.316,186.918,41.772,190.032,41.286Z" transform="translate(-28.146 -13.896)" fill="#3e373a"/>
      <path id="Path_143" data-name="Path 143" d="M214.632,38.008a4.446,4.446,0,0,1-3.857,1.892,15,15,0,0,1-4.385-.927c-3.727-1.157-7.8-2.04-11.483-.754-1.643.571-3.155,1.576-4.877,1.829-2.51.391-6.552-1.778-6.99-4.537-.492,3.188,4.194,5.918,6.99,5.483,1.722-.268,3.235-1.261,4.877-1.829,3.686-1.286,7.756-.4,11.483.754a14.4,14.4,0,0,0,4.385.927,4.48,4.48,0,0,0,3.857-1.892,3.668,3.668,0,0,0,.445-2.3,3.381,3.381,0,0,1-.445,1.359Z" transform="translate(-28.146 -13.966)" opacity="0.1"/>
      <path id="Path_144" data-name="Path 144" d="M329.816,210.228s1.884,2.443-.871,6.136-5.023,6.807-4.108,9.109c0,0,4.156-6.854,7.537-6.952S333.531,214.349,329.816,210.228Z" transform="translate(-28.146 -15.316)" fill="#6c63ff"/>
      <path id="Path_145" data-name="Path 145" d="M329.816,210.228a3.018,3.018,0,0,1,.384.766c3.3,3.847,5.058,7.438,1.884,7.526-2.955.085-6.5,5.328-7.346,6.649a3.07,3.07,0,0,0,.1.315s4.156-6.854,7.537-6.952S333.531,214.349,329.816,210.228Z" transform="translate(-28.146 -15.316)" opacity="0.1"/>
      <path id="Path_146" data-name="Path 146" d="M333.311,213.363c0,.861-.1,1.558-.216,1.558s-.219-.7-.219-1.558.121-.454.241-.454S333.311,212.5,333.311,213.363Z" transform="translate(-28.146 -15.336)" fill="#ffd037"/>
      <path id="Path_147" data-name="Path 147" d="M334.516,214.4c-.759.41-1.423.659-1.481.555s.512-.523,1.271-.946.461-.113.518,0S335.278,213.985,334.516,214.4Z" transform="translate(-28.146 -15.343)" fill="#ffd037"/>
      <path id="Path_148" data-name="Path 148" d="M319.858,210.228s-1.884,2.443.871,6.136,5.023,6.807,4.105,9.109c0,0-4.153-6.854-7.537-6.952S316.153,214.349,319.858,210.228Z" transform="translate(-28.146 -15.316)" fill="#6c63ff"/>
      <path id="Path_149" data-name="Path 149" d="M319.858,210.228a3.018,3.018,0,0,0-.384.766c-3.3,3.847-5.058,7.438-1.884,7.526,2.952.085,6.5,5.328,7.346,6.649a2.433,2.433,0,0,1-.1.315s-4.153-6.854-7.537-6.952S316.153,214.349,319.858,210.228Z" transform="translate(-28.146 -15.316)" opacity="0.1"/>
      <path id="Path_150" data-name="Path 150" d="M316.357,213.363c0,.861.1,1.558.216,1.558s.219-.7.219-1.558-.124-.454-.241-.454S316.357,212.5,316.357,213.363Z" transform="translate(-28.146 -15.336)" fill="#ffd037"/>
      <path id="Path_151" data-name="Path 151" d="M315.156,214.4c.759.41,1.423.659,1.481.555s-.512-.523-1.271-.946-.461-.113-.518,0S314.393,213.985,315.156,214.4Z" transform="translate(-28.146 -15.343)" fill="#ffd037"/>
      <ellipse id="Ellipse_11" data-name="Ellipse 11" cx="19.7" cy="2.998" rx="19.7" ry="2.998" transform="translate(276.992 222.862)" fill="#6c63ff" opacity="0.1"/>
      <path id="Path_152" data-name="Path 152" d="M334.976,222.261l-.1.763-.133,1.078-.054.451-.133,1.078-.057.451-.13,1.075-1.509,12.265c-.133,1.094-1.935,1.948-4.112,1.948H320.92c-2.177,0-3.975-.854-4.112-1.948L315.3,227.158l-.133-1.075-.054-.451-.133-1.078-.057-.451-.13-1.078-.1-.763c-.073-.631.9-1.141,2.132-1.141h16.021C334.077,221.12,335.053,221.64,334.976,222.261Z" transform="translate(-28.146 -15.4)" fill="#65617d"/>
      <path id="Path_153" data-name="Path 153" d="M306.736,209.243l-.13,1.078H286.778l-.133-1.078Z" transform="translate(0 -1.618)" fill="#9d9cb5"/>
      <path id="Path_154" data-name="Path 154" d="M306.548,210.784l-.13,1.078H286.966l-.133-1.078Z" transform="translate(0 -1.63)" fill="#9d9cb5"/>
      <path id="Path_155" data-name="Path 155" d="M306.361,212.325l-.133,1.078H287.153l-.13-1.078Z" transform="translate(0 -1.642)" fill="#9d9cb5"/>
    </g>
  </g>
</svg>
